<mxfile host="Electron" modified="2024-01-08T16:48:23.051Z" agent="Mozilla/5.0 (Windows NT 10.0; Win64; x64) AppleWebKit/537.36 (KHTML, like Gecko) draw.io/22.1.16 Chrome/120.0.6099.109 Electron/28.1.0 Safari/537.36" etag="cxu8-UHlxgkm25g4Sei7" version="22.1.16" type="device">
  <diagram name="Страница — 1" id="xtQE1LIHhNvfoPmMci-C">
    <mxGraphModel dx="852" dy="994" grid="1" gridSize="10" guides="1" tooltips="1" connect="1" arrows="1" fold="1" page="1" pageScale="1" pageWidth="827" pageHeight="1169" math="0" shadow="0">
      <root>
        <mxCell id="0" />
        <mxCell id="1" parent="0" />
        <mxCell id="Q3Ee6e0vd9C1OJXY5K28-2" value="" style="edgeStyle=orthogonalEdgeStyle;rounded=0;orthogonalLoop=1;jettySize=auto;html=1;" edge="1" parent="1" source="SdXaIAeHhzJ3udqzQm2k-1" target="Q3Ee6e0vd9C1OJXY5K28-1">
          <mxGeometry relative="1" as="geometry" />
        </mxCell>
        <mxCell id="SdXaIAeHhzJ3udqzQm2k-1" value="&lt;font style=&quot;font-size: 36px;&quot;&gt;Начало&lt;/font&gt;" style="rounded=1;whiteSpace=wrap;html=1;fillColor=#e1d5e7;strokeColor=#9673a6;" parent="1" vertex="1">
          <mxGeometry x="229" y="40" width="370" height="60" as="geometry" />
        </mxCell>
        <mxCell id="Q3Ee6e0vd9C1OJXY5K28-13" value="" style="edgeStyle=orthogonalEdgeStyle;rounded=0;orthogonalLoop=1;jettySize=auto;html=1;" edge="1" parent="1" source="Q3Ee6e0vd9C1OJXY5K28-1" target="Q3Ee6e0vd9C1OJXY5K28-3">
          <mxGeometry relative="1" as="geometry" />
        </mxCell>
        <mxCell id="Q3Ee6e0vd9C1OJXY5K28-1" value="&lt;font style=&quot;font-size: 18px;&quot;&gt;Демотаж старой дверной коробки&lt;/font&gt;" style="rounded=0;whiteSpace=wrap;html=1;fillColor=#dae8fc;strokeColor=#6c8ebf;fontSize=18;" vertex="1" parent="1">
          <mxGeometry x="251" y="140" width="326" height="60" as="geometry" />
        </mxCell>
        <mxCell id="Q3Ee6e0vd9C1OJXY5K28-14" value="" style="edgeStyle=orthogonalEdgeStyle;rounded=0;orthogonalLoop=1;jettySize=auto;html=1;" edge="1" parent="1" source="Q3Ee6e0vd9C1OJXY5K28-3" target="Q3Ee6e0vd9C1OJXY5K28-4">
          <mxGeometry relative="1" as="geometry" />
        </mxCell>
        <mxCell id="Q3Ee6e0vd9C1OJXY5K28-3" value="&lt;p class=&quot;MsoNormal&quot; style=&quot;font-size: 18px;&quot;&gt;Подготовка дверного проема для установки новых дверей&lt;/p&gt;" style="rounded=0;whiteSpace=wrap;html=1;fillColor=#dae8fc;strokeColor=#6c8ebf;fontSize=18;" vertex="1" parent="1">
          <mxGeometry x="251" y="240" width="326" height="60" as="geometry" />
        </mxCell>
        <mxCell id="Q3Ee6e0vd9C1OJXY5K28-15" value="" style="edgeStyle=orthogonalEdgeStyle;rounded=0;orthogonalLoop=1;jettySize=auto;html=1;" edge="1" parent="1" source="Q3Ee6e0vd9C1OJXY5K28-4" target="Q3Ee6e0vd9C1OJXY5K28-6">
          <mxGeometry relative="1" as="geometry" />
        </mxCell>
        <mxCell id="Q3Ee6e0vd9C1OJXY5K28-4" value="&lt;p class=&quot;MsoNormal&quot; style=&quot;font-size: 18px;&quot;&gt;Распаковка новых дверей&lt;/p&gt;" style="rounded=0;whiteSpace=wrap;html=1;fillColor=#dae8fc;strokeColor=#6c8ebf;fontSize=18;" vertex="1" parent="1">
          <mxGeometry x="251" y="340" width="326" height="60" as="geometry" />
        </mxCell>
        <mxCell id="Q3Ee6e0vd9C1OJXY5K28-16" value="" style="edgeStyle=orthogonalEdgeStyle;rounded=0;orthogonalLoop=1;jettySize=auto;html=1;" edge="1" parent="1" source="Q3Ee6e0vd9C1OJXY5K28-5" target="Q3Ee6e0vd9C1OJXY5K28-6">
          <mxGeometry relative="1" as="geometry" />
        </mxCell>
        <mxCell id="Q3Ee6e0vd9C1OJXY5K28-5" value="&lt;p class=&quot;MsoNormal&quot; style=&quot;font-size: 18px;&quot;&gt;Замер дверного проема&lt;/p&gt;" style="rounded=0;whiteSpace=wrap;html=1;fillColor=#dae8fc;strokeColor=#6c8ebf;fontSize=18;" vertex="1" parent="1">
          <mxGeometry x="251" y="430" width="326" height="60" as="geometry" />
        </mxCell>
        <mxCell id="Q3Ee6e0vd9C1OJXY5K28-17" value="" style="edgeStyle=orthogonalEdgeStyle;rounded=0;orthogonalLoop=1;jettySize=auto;html=1;" edge="1" parent="1" source="Q3Ee6e0vd9C1OJXY5K28-6" target="Q3Ee6e0vd9C1OJXY5K28-7">
          <mxGeometry relative="1" as="geometry" />
        </mxCell>
        <mxCell id="Q3Ee6e0vd9C1OJXY5K28-6" value="&lt;p class=&quot;MsoNormal&quot; style=&quot;font-size: 18px;&quot;&gt;Сборка коробки новых дверей&lt;/p&gt;" style="rounded=0;whiteSpace=wrap;html=1;fillColor=#dae8fc;strokeColor=#6c8ebf;fontSize=18;" vertex="1" parent="1">
          <mxGeometry x="251" y="520" width="326" height="60" as="geometry" />
        </mxCell>
        <mxCell id="Q3Ee6e0vd9C1OJXY5K28-18" value="" style="edgeStyle=orthogonalEdgeStyle;rounded=0;orthogonalLoop=1;jettySize=auto;html=1;" edge="1" parent="1" source="Q3Ee6e0vd9C1OJXY5K28-7" target="Q3Ee6e0vd9C1OJXY5K28-8">
          <mxGeometry relative="1" as="geometry" />
        </mxCell>
        <mxCell id="Q3Ee6e0vd9C1OJXY5K28-7" value="&lt;p class=&quot;MsoNormal&quot; style=&quot;font-size: 18px;&quot;&gt;Установка коробки в дверной проём&lt;/p&gt;" style="rounded=0;whiteSpace=wrap;html=1;fillColor=#dae8fc;strokeColor=#6c8ebf;fontSize=18;" vertex="1" parent="1">
          <mxGeometry x="251" y="620" width="326" height="60" as="geometry" />
        </mxCell>
        <mxCell id="Q3Ee6e0vd9C1OJXY5K28-19" value="" style="edgeStyle=orthogonalEdgeStyle;rounded=0;orthogonalLoop=1;jettySize=auto;html=1;" edge="1" parent="1" source="Q3Ee6e0vd9C1OJXY5K28-8" target="Q3Ee6e0vd9C1OJXY5K28-9">
          <mxGeometry relative="1" as="geometry" />
        </mxCell>
        <mxCell id="Q3Ee6e0vd9C1OJXY5K28-8" value="&lt;p class=&quot;MsoNormal&quot; style=&quot;font-size: 18px;&quot;&gt;Подготовка дверного полотна&lt;/p&gt;" style="rounded=0;whiteSpace=wrap;html=1;fillColor=#dae8fc;strokeColor=#6c8ebf;fontSize=18;" vertex="1" parent="1">
          <mxGeometry x="251" y="710" width="326" height="60" as="geometry" />
        </mxCell>
        <mxCell id="Q3Ee6e0vd9C1OJXY5K28-20" value="" style="edgeStyle=orthogonalEdgeStyle;rounded=0;orthogonalLoop=1;jettySize=auto;html=1;" edge="1" parent="1" source="Q3Ee6e0vd9C1OJXY5K28-9" target="Q3Ee6e0vd9C1OJXY5K28-10">
          <mxGeometry relative="1" as="geometry" />
        </mxCell>
        <mxCell id="Q3Ee6e0vd9C1OJXY5K28-9" value="&lt;p class=&quot;MsoNormal&quot; style=&quot;font-size: 18px;&quot;&gt;Крепление дверных петель на дверное полотно&lt;/p&gt;" style="rounded=0;whiteSpace=wrap;html=1;fillColor=#dae8fc;strokeColor=#6c8ebf;fontSize=18;" vertex="1" parent="1">
          <mxGeometry x="251" y="810" width="326" height="60" as="geometry" />
        </mxCell>
        <mxCell id="Q3Ee6e0vd9C1OJXY5K28-21" value="" style="edgeStyle=orthogonalEdgeStyle;rounded=0;orthogonalLoop=1;jettySize=auto;html=1;" edge="1" parent="1" source="Q3Ee6e0vd9C1OJXY5K28-10" target="Q3Ee6e0vd9C1OJXY5K28-12">
          <mxGeometry relative="1" as="geometry" />
        </mxCell>
        <mxCell id="Q3Ee6e0vd9C1OJXY5K28-10" value="&lt;p class=&quot;MsoNormal&quot; style=&quot;font-size: 18px;&quot;&gt;Навешивание дверного полотна&lt;/p&gt;" style="rounded=0;whiteSpace=wrap;html=1;fillColor=#dae8fc;strokeColor=#6c8ebf;fontSize=18;" vertex="1" parent="1">
          <mxGeometry x="251" y="910" width="326" height="60" as="geometry" />
        </mxCell>
        <mxCell id="Q3Ee6e0vd9C1OJXY5K28-22" value="" style="edgeStyle=orthogonalEdgeStyle;rounded=0;orthogonalLoop=1;jettySize=auto;html=1;" edge="1" parent="1" source="Q3Ee6e0vd9C1OJXY5K28-11" target="Q3Ee6e0vd9C1OJXY5K28-12">
          <mxGeometry relative="1" as="geometry" />
        </mxCell>
        <mxCell id="Q3Ee6e0vd9C1OJXY5K28-11" value="&lt;p class=&quot;MsoNormal&quot; style=&quot;font-size: 18px;&quot;&gt;Установка дверной ручки&lt;/p&gt;" style="rounded=0;whiteSpace=wrap;html=1;fillColor=#dae8fc;strokeColor=#6c8ebf;fontSize=18;" vertex="1" parent="1">
          <mxGeometry x="251" y="1000" width="326" height="60" as="geometry" />
        </mxCell>
        <mxCell id="Q3Ee6e0vd9C1OJXY5K28-12" value="&lt;font style=&quot;font-size: 36px;&quot;&gt;Конец&lt;/font&gt;" style="rounded=1;whiteSpace=wrap;html=1;fillColor=#e1d5e7;strokeColor=#9673a6;" vertex="1" parent="1">
          <mxGeometry x="229" y="1090" width="370" height="60" as="geometry" />
        </mxCell>
      </root>
    </mxGraphModel>
  </diagram>
</mxfile>
